<?xml version="1.0" encoding="utf-8"?>
<!-- Generator: Adobe Illustrator 18.0.0, SVG Export Plug-In . SVG Version: 6.00 Build 0)  -->
<!DOCTYPE svg PUBLIC "-//W3C//DTD SVG 1.1//EN" "http://www.w3.org/Graphics/SVG/1.1/DTD/svg11.dtd">
<svg version="1.1" id="Capa_1" xmlns="http://www.w3.org/2000/svg" xmlns:xlink="http://www.w3.org/1999/xlink" x="0px" y="0px"
	 viewBox="0 0 200.3 50.2" enable-background="new 0 0 200.3 50.2" xml:space="preserve">
<g>
	<polygon fill="#FFFFFF" points="27.5,7.9 9.2,7.9 9.2,22.3 24.8,22.3 24.8,27.1 9.2,27.1 9.2,47.6 3.2,47.6 3.2,3.3 25.8,3.3 	"/>
	<rect x="33.5" y="3.3" fill="#FFFFFF" width="6" height="44.4"/>
	<polygon fill="#FFFFFF" points="111.7,47.6 87.7,47.6 87.7,3.3 111.4,3.3 113.1,7.9 93.7,7.9 93.7,22.1 110.3,22.1 110.3,26.9 
		93.7,26.9 93.7,43.1 113.4,43.1 	"/>
	<polygon fill="#FFFFFF" points="141.1,47.6 119.7,47.6 119.7,3.3 125.7,3.3 125.7,43.1 142.8,43.1 	"/>
	<rect x="148.8" y="3.3" fill="#FFFFFF" width="6" height="44.4"/>
	<path fill="#FFFFFF" d="M194.4,7.5c-2.4-4-7.5-4.9-15-4.9c-7.5,0-12.5,0.9-15,4.9c-2.4,4-2.7,10.7-2.7,18s0.3,14,2.7,18
		c2.4,4,7.5,4.9,15,4.9c7.5,0,12.5-0.9,15-4.9c2.4-4,2.7-10.7,2.7-18S196.8,11.4,194.4,7.5 M188.8,41.6c-2.1,2.1-4.2,2.1-9.4,2.1
		c-5.2,0-7.3,0-9.4-2.1c-2.1-2.1-2.1-4.9-2.1-16.2c0-11.3,0-14.1,2.1-16.2c2.1-2.1,4.2-2.1,9.4-2.1c5.2,0,7.3,0,9.4,2.1
		c2.1,2.1,2.1,4.9,2.1,16.2C191,36.8,190.9,39.5,188.8,41.6"/>
	<path fill="#FFFFFF" d="M77.9,8c-2.4-3.9-7.3-4.7-14.5-4.7l-15.8,0v44.4h10.8h5.1c7.2,0,12.1-0.9,14.5-4.7
		c2.4-3.9,2.6-10.4,2.6-17.4C80.5,18.4,80.3,11.9,77.9,8 M72.5,41.1c-2.1,2.1-4.1,2-9.1,2h-9.8V7.7h9.8c5,0,7,0,9.1,2
		c2.1,2.1,2.1,4.7,2.1,15.7C74.6,36.4,74.6,39.1,72.5,41.1"/>
</g>
</svg>
